<svg width="60" height="60" viewBox="0 0 60 60" fill="none" xmlns="http://www.w3.org/2000/svg">
<path opacity="0.4" d="M40.475 5H19.55C10.425 5 5 10.425 5 19.525V40.45C5 49.55 10.425 54.975 19.525 54.975H40.45C49.55 54.975 54.975 49.55 54.975 40.45V19.525C55 10.425 49.575 5 40.475 5Z" fill="black"/>
<path d="M34.7978 21.2004H21.9227L22.7477 20.3754C23.4727 19.6504 23.4727 18.4504 22.7477 17.7254C22.0227 17.0004 20.8227 17.0004 20.0977 17.7254L16.1727 21.6504C15.4477 22.3754 15.4477 23.5754 16.1727 24.3004L20.0977 28.2255C20.4727 28.6005 20.9477 28.7755 21.4227 28.7755C21.8977 28.7755 22.3727 28.6005 22.7477 28.2255C23.4727 27.5005 23.4727 26.3005 22.7477 25.5755L22.0977 24.9254H34.7978C37.9978 24.9254 40.6228 27.5255 40.6228 30.7505C40.6228 33.9755 38.0225 36.5755 34.7978 36.5755H22.4977C21.4727 36.5755 20.6227 37.4255 20.6227 38.4505C20.6227 39.4755 21.4727 40.3255 22.4977 40.3255H34.7978C40.0728 40.3255 44.3728 36.0255 44.3728 30.7505C44.3728 25.4755 40.0728 21.2004 34.7978 21.2004Z" fill="white"/>
</svg>
