<svg width="54" height="53" viewBox="0 0 54 53" fill="none" xmlns="http://www.w3.org/2000/svg">
<path d="M36.1193 25.3104C35.6121 24.8756 34.9807 24.6582 34.2354 24.6582C33.4279 24.6582 32.7965 24.8859 32.341 25.3518C31.8959 25.8176 31.6164 26.4387 31.4922 27.2254H36.9475C36.9061 26.3869 36.6162 25.7555 36.1193 25.3104Z" fill="black"/>
<path d="M22.6844 27.5451C22.291 27.3691 21.7527 27.276 21.0488 27.2656H17.0117V31.634H20.9971C21.7113 31.634 22.26 31.5408 22.6533 31.3441C23.3779 30.9818 23.7299 30.309 23.7299 29.3049C23.7299 28.4561 23.3779 27.866 22.6844 27.5451Z" fill="black"/>
<path d="M27 0C12.3629 0 0.5 11.8629 0.5 26.5C0.5 41.1371 12.3629 53 27 53C41.6371 53 53.5 41.1371 53.5 26.5C53.5 11.8629 41.6371 0 27 0ZM30.6852 18.8709H37.7035V20.9102H30.6852V18.8709ZM26.4514 32.152C26.1408 32.6592 25.7578 33.0939 25.292 33.4355C24.7744 33.8393 24.1533 34.1084 23.4391 34.2637C22.7248 34.4086 21.9588 34.4811 21.1203 34.4811H13.75V18.1049H21.6689C23.6668 18.1359 25.085 18.7156 25.9131 19.8543C26.41 20.5479 26.6584 21.3863 26.6584 22.3594C26.6584 23.3531 26.41 24.1605 25.9027 24.7713C25.6232 25.1129 25.1988 25.4234 24.6502 25.7029C25.4887 26.0135 26.1201 26.4896 26.5445 27.1521C26.9689 27.8146 27.1863 28.6117 27.1863 29.5537C27.1863 30.5061 26.9379 31.3756 26.4514 32.152ZM40.25 29.3156H31.4305C31.4822 30.5268 31.8963 31.3859 32.6934 31.8725C33.1799 32.1727 33.7596 32.3279 34.4428 32.3279C35.157 32.3279 35.7471 32.1416 36.2025 31.7689C36.451 31.5723 36.6684 31.2928 36.8547 30.9305H40.0844C40.0016 31.6447 39.6082 32.3797 38.9146 33.125C37.8277 34.3051 36.3164 34.8951 34.36 34.8951C32.7451 34.8951 31.327 34.3982 30.0951 33.4045C28.8633 32.4107 28.2422 30.7959 28.2422 28.56C28.2422 26.4586 28.8012 24.8541 29.9088 23.7361C31.0268 22.6182 32.4656 22.0592 34.2357 22.0592C35.2916 22.0592 36.2439 22.2455 37.0824 22.6285C37.9312 23.0012 38.6248 23.6016 39.1734 24.4193C39.6703 25.1336 39.9912 25.9721 40.1361 26.9244C40.2293 27.473 40.2604 28.2701 40.25 29.3156Z" fill="black"/>
<path d="M22.7355 24.1504C23.1807 23.8813 23.398 23.3947 23.398 22.7115C23.398 21.9455 23.1082 21.4486 22.5182 21.2002C22.0109 21.0346 21.3691 20.9414 20.5824 20.9414H17.0215V24.5541H20.9965C21.7107 24.5645 22.2801 24.4299 22.7355 24.1504Z" fill="black"/>
</svg>
