<svg width="52" height="53" viewBox="0 0 52 53" fill="none" xmlns="http://www.w3.org/2000/svg">
<path d="M45.4529 52.502H6.47168C5.61834 52.5211 4.77019 52.3645 3.97992 52.042C3.18966 51.7194 2.47418 51.2378 1.87793 50.627C1.26556 50.0202 0.78343 49.2948 0.461036 48.4953C0.138641 47.6958 -0.0172398 46.8389 0.00293076 45.977V6.5645C-0.0235219 5.69625 0.129329 4.83187 0.451938 4.02535C0.774547 3.21883 1.25998 2.48749 1.87793 1.877C2.47418 1.26622 3.18966 0.784592 3.97992 0.462036C4.77019 0.13948 5.61834 -0.0171098 6.47168 0.00199729H45.4529C46.3094 -0.019703 47.1611 0.135624 47.9548 0.458257C48.7485 0.780889 49.467 1.26388 50.0654 1.877C50.6764 2.48095 51.1577 3.20314 51.4801 3.99942C51.8025 4.79571 51.9591 5.64938 51.9404 6.50825V45.8832C51.9606 46.7451 51.8047 47.602 51.4823 48.4015C51.1599 49.2011 50.6778 49.9264 50.0654 50.5332C49.4752 51.1633 48.7603 51.6637 47.9662 52.0027C47.1721 52.3416 46.3163 52.5116 45.4529 52.502ZM42.8467 25.0707C42.6292 20.8634 40.8712 16.8832 37.9078 13.8887C34.9444 10.8941 30.9828 9.09468 26.7779 8.83325H24.7717C20.5938 9.11451 16.6625 10.9124 13.7172 13.8888C10.7718 16.8652 9.01533 20.8151 8.77793 24.9957V27.077C10.0279 36.6395 15.3592 42.0145 24.7717 43.202H26.8154C30.9967 42.9384 34.9366 41.1522 37.8905 38.1811C40.8443 35.21 42.6075 31.2598 42.8467 27.077V25.0707ZM15.0029 35.8145C12.5002 33.1207 11.1538 29.5527 11.2529 25.877V25.6145C16.1841 25.6464 21.0931 24.9514 25.8217 23.552H25.9717C26.3287 24.424 26.8017 25.2439 27.3779 25.9895C22.2008 27.6607 17.8045 31.1511 15.0029 35.8145ZM24.9592 21.1332C20.6196 22.3836 16.1253 23.0149 11.6092 23.0082C12.042 20.8091 12.9828 18.7415 14.3566 16.9705C15.7304 15.1996 17.4992 13.7742 19.5217 12.8082C21.4904 15.478 23.3058 18.2575 24.9592 21.1332ZM31.4654 39.4895C29.4851 40.6429 27.2496 41.2872 24.9592 41.3645C23.4292 41.33 21.9229 40.9791 20.5353 40.3337C19.1477 39.6883 17.9088 38.7624 16.8967 37.6145C19.44 33.2881 23.4939 30.0557 28.2779 28.5395C29.7264 32.0659 30.7949 35.7366 31.4654 39.4895ZM27.8467 20.327C26.6842 18.2145 24.8904 15.352 22.4654 11.7395C23.7202 11.4115 25.0122 11.2476 26.3092 11.252C27.9888 11.2481 29.6524 11.5775 31.2038 12.2212C32.7551 12.8649 34.1633 13.8101 35.3467 15.002C33.3984 17.4483 30.7985 19.2942 27.8467 20.327ZM40.3529 25.952C38.1497 25.5026 35.9077 25.2702 33.6592 25.2582C32.5233 25.2514 31.3886 25.3329 30.2654 25.502C30.1529 25.1832 29.9279 24.677 29.6092 24.0207C29.3617 23.5557 29.1486 23.0732 28.9717 22.577C32.1143 21.4018 34.8942 19.4236 37.0342 16.8395C39.1432 19.3815 40.309 22.5741 40.3342 25.877L40.3529 25.952ZM33.9592 38.2707C33.254 34.7329 32.3208 31.2444 31.1654 27.827C32.289 27.6586 33.4231 27.5709 34.5592 27.5645C36.4705 27.5582 38.3702 27.8621 40.1842 28.4645C39.8756 30.431 39.1612 32.3117 38.0862 33.9871C37.0113 35.6624 35.5994 37.0957 33.9404 38.1957L33.9592 38.2707Z" fill="black"/>
</svg>
