<svg width="53" height="53" viewBox="0 0 53 53" fill="none" xmlns="http://www.w3.org/2000/svg">
<path d="M34.98 26.5C34.98 28.1772 34.4827 29.8167 33.5509 31.2112C32.6191 32.6058 31.2947 33.6927 29.7452 34.3345C28.1956 34.9763 26.4906 35.1443 24.8456 34.8171C23.2007 34.4899 21.6897 33.6822 20.5037 32.4963C19.3178 31.3103 18.5101 29.7993 18.1829 28.1544C17.8557 26.5094 18.0237 24.8044 18.6655 23.2548C19.3073 21.7053 20.3942 20.3809 21.7888 19.4491C23.1833 18.5173 24.8228 18.02 26.5 18.02C28.7482 18.0226 30.9037 18.9168 32.4934 20.5066C34.0832 22.0963 34.9774 24.2518 34.98 26.5ZM53 14.84V38.16C52.9955 42.0944 51.4306 45.8665 48.6485 48.6485C45.8665 51.4306 42.0944 52.9955 38.16 53H14.84C10.9056 52.9955 7.13353 51.4306 4.35146 48.6485C1.56938 45.8665 0.00445591 42.0944 0 38.16V14.84C0.00445591 10.9056 1.56938 7.13353 4.35146 4.35146C7.13353 1.56938 10.9056 0.00445591 14.84 0H38.16C42.0944 0.00445591 45.8665 1.56938 48.6485 4.35146C51.4306 7.13353 52.9955 10.9056 53 14.84ZM39.22 26.5C39.22 23.9842 38.474 21.5249 37.0763 19.4331C35.6786 17.3414 33.692 15.711 31.3677 14.7483C29.0435 13.7855 26.4859 13.5336 24.0185 14.0244C21.551 14.5152 19.2845 15.7267 17.5056 17.5056C15.7267 19.2845 14.5152 21.551 14.0244 24.0185C13.5336 26.4859 13.7855 29.0435 14.7483 31.3677C15.711 33.692 17.3414 35.6786 19.4331 37.0763C21.5249 38.474 23.9842 39.22 26.5 39.22C29.8724 39.2162 33.1055 37.8748 35.4902 35.4902C37.8748 33.1055 39.2162 29.8724 39.22 26.5ZM43.46 12.72C43.46 12.0911 43.2735 11.4762 42.9241 10.9533C42.5746 10.4303 42.078 10.0227 41.4969 9.78206C40.9159 9.54138 40.2765 9.4784 39.6596 9.6011C39.0428 9.7238 38.4761 10.0267 38.0314 10.4714C37.5867 10.9161 37.2838 11.4828 37.1611 12.0996C37.0384 12.7165 37.1014 13.3559 37.3421 13.9369C37.5827 14.518 37.9903 15.0147 38.5133 15.3641C39.0362 15.7135 39.6511 15.9 40.28 15.9C41.1234 15.9 41.9322 15.565 42.5286 14.9686C43.125 14.3722 43.46 13.5634 43.46 12.72Z" fill="black"/>
</svg>
