<svg width="52" height="53" viewBox="0 0 52 53" fill="none" xmlns="http://www.w3.org/2000/svg">
<path d="M47.8389 0.00475315H4.4524C3.89318 -0.0219432 3.33426 0.0640092 2.80768 0.25774C2.28109 0.45147 1.79718 0.749136 1.38359 1.13368C0.970038 1.51826 0.634938 1.9822 0.397531 2.4989C0.160124 3.01564 0.0250244 3.575 0 4.145V48.4623C0.0327592 49.655 0.512383 50.7901 1.34037 51.6337C2.16835 52.4777 3.2819 52.9665 4.4524 53H47.8389C48.9767 52.9483 50.0495 52.4442 50.8272 51.596C51.6049 50.7477 52.0255 49.6229 51.9988 48.4623V4.145C52.0082 3.59021 51.9062 3.03935 51.6992 2.52616C51.4921 2.013 51.1844 1.54834 50.7947 1.16064C50.4054 0.772984 49.9423 0.470515 49.434 0.27175C48.9257 0.0729853 48.3829 -0.0178692 47.8389 0.00475315ZM16.2496 44.1896H8.6773V20.5736H16.2496V44.1896ZM12.6422 16.9963C12.1138 17.0151 11.5873 16.9223 11.0958 16.7238C10.6042 16.5252 10.1583 16.2252 9.78595 15.8427C9.4136 15.4601 9.1229 15.0031 8.93213 14.5006C8.74132 13.998 8.65458 13.4607 8.6773 12.9223C8.65393 12.3781 8.74243 11.835 8.93713 11.3277C9.13183 10.8204 9.42842 10.3602 9.80785 9.97665C10.1873 9.59303 10.6412 9.2945 11.1405 9.10021C11.6398 8.90588 12.1735 8.8201 12.7072 8.84832C13.2356 8.82957 13.7621 8.92235 14.2537 9.12088C14.7452 9.31941 15.1912 9.6194 15.5635 10.002C15.9358 10.3846 16.2265 10.8415 16.4173 11.3441C16.6081 11.8466 16.6948 12.384 16.6721 12.9223C16.6955 13.4665 16.607 14.0096 16.4123 14.5169C16.2176 15.0242 15.921 15.4844 15.5416 15.868C15.1621 16.2516 14.7082 16.5501 14.2089 16.7444C13.7096 16.9388 13.1759 17.0245 12.6422 16.9963ZM43.354 44.1896H35.7492V31.272C35.7492 28.1916 34.6767 26.0718 31.9793 26.0718C31.1414 26.0791 30.326 26.3504 29.6455 26.8485C28.9646 27.3467 28.4518 28.0472 28.1769 28.8541C27.9656 29.4589 27.8772 30.1011 27.9169 30.742V44.1896H20.442V20.5736H27.9169V23.8858C28.5815 22.6414 29.5704 21.6087 30.7748 20.9012C31.9793 20.194 33.352 19.8399 34.7417 19.8779C39.6491 19.8779 43.354 23.1902 43.354 30.2452V44.1896Z" fill="black"/>
</svg>
