<svg width="61" height="61" viewBox="0 0 61 61" fill="none" xmlns="http://www.w3.org/2000/svg">
<path fill-rule="evenodd" clip-rule="evenodd" d="M58.8259 11.2401C57.8139 12.3761 56.1339 13.8221 53.7259 16.0241C51.1759 18.5681 47.566 18.5681 45.016 16.0241C42.464 13.4761 42.464 9.87614 45.016 7.33014C47.366 4.98414 49.8919 2.20609 49.8519 2.19409C43.0219 -0.951908 34.6719 0.264127 29.0439 5.88013C23.9139 10.9981 22.452 18.3701 24.61 24.7921L2.90795 46.4521C-0.300047 49.6521 -0.300047 54.8421 2.90795 58.0421C6.11595 61.2421 11.3159 61.2421 14.5239 58.0421L36.2239 36.3841C42.6639 38.5421 50.0499 37.0781 55.1799 31.9601C60.7999 26.3501 61.9679 18.0501 58.8259 11.2401Z" fill="#A67B5B"/>
</svg>
