<svg width="53" height="53" viewBox="0 0 53 53" fill="none" xmlns="http://www.w3.org/2000/svg">
<path d="M8.83333 0C3.95481 0 0 3.95481 0 8.83333V44.1667C0 49.0452 3.95481 53 8.83333 53H44.1667C49.0452 53 53 49.0452 53 44.1667V8.83333C53 3.95481 49.0452 0 44.1667 0H8.83333ZM11.4656 11.3571H21.482L28.595 21.4647L37.2262 11.3571H40.381L30.0195 23.4882L42.7963 41.6429H32.7824L24.5283 29.916L14.5119 41.6429H11.3571L23.1037 27.8925L11.4656 11.3571ZM16.2963 13.881L34.0985 39.119H37.9656L20.1634 13.881H16.2963Z" fill="black"/>
</svg>
